<?xml version="1.0" standalone="no"?>
<!DOCTYPE svg PUBLIC "-//W3C//DTD SVG 20010904//EN"
 "http://www.w3.org/TR/2001/REC-SVG-20010904/DTD/svg10.dtd">
<svg version="1.0" xmlns="http://www.w3.org/2000/svg"
 width="64.000000pt" height="64.000000pt" viewBox="0 0 64.000000 64.000000"
 preserveAspectRatio="xMidYMid meet">

<g transform="translate(0.000000,64.000000) scale(0.100000,-0.100000)"
fill="#D4291F" stroke="none">
<path d="M0 320 l0 -320 320 0 320 0 0 320 0 320 -320 0 -320 0 0 -320z m289
43 c39 -151 35 -147 59 -58 12 44 24 95 28 113 6 31 8 32 55 32 l49 0 0 -145
0 -145 -30 0 -29 0 -3 103 -3 102 -29 -103 -29 -102 -32 2 c-33 2 -34 3 -60
97 -15 53 -29 101 -30 106 -2 6 -4 -38 -4 -97 l-1 -108 -30 0 -30 0 0 145 0
145 48 0 49 0 22 -87z"/>
</g>
</svg>
